<svg xmlns:dc="http://purl.org/dc/elements/1.1/" xmlns:cc="http://creativecommons.org/ns#" xmlns:rdf="http://www.w3.org/1999/02/22-rdf-syntax-ns#" xmlns:svg="http://www.w3.org/2000/svg" xmlns="http://www.w3.org/2000/svg" xmlns:sodipodi="http://sodipodi.sourceforge.net/DTD/sodipodi-0.dtd" xmlns:inkscape="http://www.inkscape.org/namespaces/inkscape" version="1.1" x="0px" y="0px" viewBox="0 0 100 125"><g transform="translate(0,-952.36218)"><path d="m 81.00002,1002.3501 c -0.0557,-0.6635 -0.30492,-1.4483 -0.65625,-1.875 l -12,-15.00004 c -1.1699,-1.33137 -2.99167,-1.45078 -4.21893,-0.46897 -1.22726,0.9818 -1.45048,2.9918 -0.46857,4.21897 l 8.09375,10.125 -49.75004,0 c -1.6568,0 -3,1.34324 -3,3.00004 0,1.6569 1.3432,3 3,3 l 49.75004,0 -8.09375,10.125 c -0.98191,1.2271 -0.72096,3.1917 0.46857,4.2189 1.29252,1.1161 3.23725,0.7584 4.21893,-0.4689 l 12,-15 c 0.50783,-0.6216 0.64738,-1.078 0.65625,-1.875 z" style="text-indent:0;text-transform:none;direction:ltr;block-progression:tb;baseline-shift:baseline;color:#000000;enable-background:accumulate;" fill="#000000" fill-opacity="1" stroke="none" marker="none" visibility="visible" display="inline" overflow="visible"/></g></svg>