<svg xmlns:dc="http://purl.org/dc/elements/1.1/" xmlns:cc="http://creativecommons.org/ns#" xmlns:rdf="http://www.w3.org/1999/02/22-rdf-syntax-ns#" xmlns:svg="http://www.w3.org/2000/svg" xmlns="http://www.w3.org/2000/svg" xmlns:sodipodi="http://sodipodi.sourceforge.net/DTD/sodipodi-0.dtd" xmlns:inkscape="http://www.inkscape.org/namespaces/inkscape" version="1.1" x="0px" y="0px" viewBox="0 0 100 125"><g transform="translate(0,-952.36218)"><path style="text-indent:0;text-transform:none;direction:ltr;block-progression:tb;baseline-shift:baseline;color:#ffffff;enable-background:accumulate;" d="m 50,959.36218 c -17.10897,0 -31,13.89125 -31,31.00001 0,16.77321 13.35435,30.43861 30,30.96871 l 0,11.0313 -10,0 c -0.55228,0 -1,0.4477 -1,1 0,0.5523 0.44772,1 1,1 l 10,0 0,10 c 0,0.5523 0.44771,1 1,1 0.55228,0 1,-0.4477 1,-1 l 0,-10 10,0 c 0.55228,0 1,-0.4477 1,-1 0,-0.5523 -0.44772,-1 -1,-1 l -10,0 0,-11.0313 c 16.64567,-0.5301 30,-14.1955 30,-30.96871 0,-17.10876 -13.89101,-31.00001 -31,-31.00001 z m 0,2 c 16.02809,0 29,12.97215 29,29.00001 0,16.02781 -12.97191,29.00001 -29,29.00001 -16.02807,0 -29,-12.9722 -29,-29.00001 0,-16.02786 12.97193,-29.00001 29,-29.00001 z" fill="#000000" fill-opacity="1" stroke="none" marker="none" visibility="visible" display="inline" overflow="visible"/></g></svg>